<svg id="_x31__x2C_5" enable-background="new 0 0 24 24" height="512" viewBox="0 0 24 24" width="512" xmlns="http://www.w3.org/2000/svg"><path d="m21.25.75h-18.5c-1.105 0-2 .895-2 2v1.5h22.5v-1.5c0-1.105-.895-2-2-2z" fill="#fff"/><path fill="#fff" d="m11.63 13.509h-4.37c-.872 0-1.689-.34-2.302-.958-.611-.615-.944-1.431-.938-2.297-.012-.85.322-1.667.94-2.285.635-.621 1.45-.959 2.3-.959h.45c.414 0 .77.336.77.75s-.316.75-.73.75h-.49c-.457 0-.899.187-1.246.526-.323.322-.5.755-.494 1.212-.003.479.175.917.502 1.246.33.332.769.515 1.238.515h4.37c.641 0 1.212-.333 1.527-.89l.061-.119c.065-.14.108-.272.138-.416.085-.405.484-.663.889-.579.405.085.665.483.579.889-.055.259-.134.5-.235.715-.041.096-.092.203-.154.296-.549.971-1.634 1.604-2.805 1.604z"/><path fill="#fff" d="m16.74 13.489h-.45c-.414 0-.75-.336-.75-.75s.336-.75.75-.75h.45c.469 0 .908-.183 1.238-.515.327-.329.505-.766.502-1.229.003-.475-.175-.911-.501-1.24-.33-.333-.77-.515-1.238-.515h-4.37c-.463 0-.905.183-1.246.516-.064.064-.121.132-.164.197-.018.033-.038.065-.06.095-.065.087-.111.171-.144.262-.009.037-.021.073-.034.106-.035.083-.052.141-.06.199-.059.41-.442.693-.849.637-.41-.059-.695-.438-.637-.849.024-.166.065-.32.132-.494.002-.006.003-.011.005-.017.079-.25.195-.479.353-.699.001-.002.003-.005.005-.008.105-.17.239-.337.398-.497.627-.614 1.442-.95 2.3-.95h4.37c.872 0 1.689.34 2.303.958.611.615.943 1.431.937 2.297.006.855-.327 1.671-.937 2.286-.614.619-1.431.96-2.303.96z"/><path fill="#fff" d="m17.25 24c-.201 0-.4-.08-.548-.238l-3.5-3.75c-.269-.288-.269-.735 0-1.023l3.5-3.75c.283-.303.757-.319 1.06-.037.303.283.319.757.037 1.06l-3.023 3.238 3.022 3.238c.283.303.266.777-.037 1.06-.144.135-.327.202-.511.202z"/><path fill="#fff" d="m23.25 20.25h-9c-.414 0-.75-.336-.75-.75s.336-.75.75-.75h9c.414 0 .75.336.75.75s-.336.75-.75.75z"/><path fill="#fff" d="m11.32 22h-8.57c-1.517 0-2.75-1.233-2.75-2.75v-16.5c0-1.517 1.233-2.75 2.75-2.75h18.5c1.517 0 2.75 1.233 2.75 2.75v13.75c0 .414-.336.75-.75.75s-.75-.336-.75-.75v-13.75c0-.689-.561-1.25-1.25-1.25h-18.5c-.689 0-1.25.561-1.25 1.25v16.5c0 .689.561 1.25 1.25 1.25h8.57c.414 0 .75.336.75.75s-.336.75-.75.75z"/><path fill="#fff" d="m23.25 5h-22.5c-.414 0-.75-.336-.75-.75s.336-.75.75-.75h22.5c.414 0 .75.336.75.75s-.336.75-.75.75z"/></svg>